# Blender v2.76 (sub 0) OBJ File: '100.blend'
# www.blender.org
mtllib 100.mtl
o Cube
v 1.000000 -1.000000 0.000000
v -1.000000 -1.000000 0.000000
v -1.000000 1.000000 0.000000
v 1.000000 1.000000 0.000000
v 0.999999 -1.000000 0.248391
v -1.000001 -0.999999 0.248391
v -1.000000 1.000000 0.248391
v 1.000000 1.000000 0.248391
v 0.806591 -0.806591 0.248391
v -0.806592 -0.806590 0.248391
v 0.806591 0.806591 0.248391
v -0.806591 0.806591 0.248391
v 0.806591 -0.806591 0.186208
v -0.806592 -0.806590 0.186208
v 0.806591 0.806591 0.186208
v -0.806591 0.806591 0.186208
v -0.000000 0.000000 0.186208
v 0.184371 0.000000 0.186208
v -0.276557 0.000000 0.186208
v -0.092186 0.000000 0.186208
v 0.276557 0.000000 0.186208
v -0.276557 -0.276556 0.186208
v 0.046092 -0.184371 0.186208
v -0.230464 0.000000 0.186208
v -0.000000 -0.230464 0.186208
v 0.138278 -0.184371 0.186208
v 0.184371 -0.230464 0.186208
v -0.276557 0.046093 0.186208
v -0.138279 -0.276557 0.186208
v -0.092186 -0.230464 0.186208
v -0.230464 -0.276556 0.186208
v 0.230464 -0.276557 0.186208
v 0.322649 -0.276557 0.186208
v 0.276556 -0.230464 0.186208
v 0.046092 -0.276557 0.186208
v 0.138278 -0.276557 0.186208
v 0.138278 0.046093 0.186208
v 0.046093 0.046093 0.186208
v 0.322649 0.046093 0.186208
v -0.230464 -0.230464 0.186208
v -0.230464 0.046093 0.186208
v -0.138279 0.046093 0.186208
v -0.138279 -0.230464 0.186208
v -0.230464 0.000000 0.304031
v -0.276557 0.000000 0.304031
v -0.230464 -0.276556 0.304031
v -0.276557 -0.276556 0.304031
v -0.000000 0.000000 0.293911
v -0.000000 -0.230464 0.293911
v -0.092186 0.000000 0.293911
v -0.092186 -0.138278 0.293911
v -0.046093 -0.276557 0.293911
v -0.092186 -0.230464 0.293911
v 0.046092 -0.276557 0.293911
v -0.138279 -0.276557 0.293911
v 0.046093 0.046093 0.293911
v -0.046093 -0.230464 0.293911
v -0.138279 -0.138278 0.293911
v -0.138279 0.046093 0.293911
v 0.184371 0.000000 0.287613
v 0.276557 0.000000 0.287613
v 0.322649 -0.184371 0.287613
v 0.276556 -0.184371 0.287613
v 0.184371 -0.230464 0.287613
v 0.184371 -0.276557 0.287613
v 0.322649 -0.276557 0.287613
v 0.276556 -0.230464 0.287613
v 0.138278 -0.276557 0.287613
v 0.138278 0.046093 0.287613
v 0.322649 0.046093 0.287613
v -0.230464 0.000000 0.304108
v -0.276557 0.000000 0.304108
v -0.276557 0.046093 0.304108
v -0.230464 0.046093 0.304108
vn 0.000000 0.000000 -1.000000
vn -0.000000 -1.000000 0.000000
vn -1.000000 0.000000 -0.000000
vn 0.000000 1.000000 -0.000000
vn 1.000000 -0.000000 0.000000
vn -0.000000 0.000000 1.000000
usemtl Material
s off
f 1//1 2//1 3//1 4//1
f 1//2 5//2 6//2 2//2
f 2//3 6//3 7//3 3//3
f 3//4 7//4 8//4 4//4
f 5//5 1//5 4//5 8//5
f 11//2 12//2 16//2 15//2
f 9//3 11//3 15//3 13//3
f 12//5 10//5 14//5 16//5
f 10//4 9//4 13//4 14//4
f 21//6 18//6 27//6 34//6
f 29//6 43//6 40//6 31//6 22//6 19//6 28//6 16//6 14//6 13//6 32//6 36//6 26//6 23//6 35//6
f 25//6 17//6 20//6 30//6
f 24//4 19//4 45//4 44//4
f 6//6 5//6 8//6 11//6 9//6 10//6
f 43//6 42//6 38//6 23//6 26//6 37//6 39//6 33//6 32//6 13//6 15//6 16//6 28//6 41//6 24//6 40//6
f 7//6 6//6 10//6 12//6 11//6 8//6
f 19//2 24//2 71//2 72//2
usemtl Material.001
f 46//6 44//6 45//6 47//6
f 20//2 17//2 48//2 50//2
f 26//3 36//3 68//3 69//3 37//3
f 18//2 21//2 61//2 60//2
f 25//3 49//3 48//3 17//3
f 34//3 67//3 63//3 61//3 21//3
f 29//2 35//2 54//2 52//2 55//2
f 39//5 70//5 62//5 66//5 33//5
f 62//6 70//6 69//6 68//6 65//6 64//6 60//6 61//6 63//6
f 20//5 50//5 51//5 53//5 30//5
f 24//5 41//5 74//5 71//5
f 39//4 37//4 69//4 70//4
f 38//4 42//4 59//4 56//4
f 66//6 62//6 63//6 67//6 64//6 65//6
f 23//5 38//5 56//5 54//5 35//5
f 53//6 51//6 58//6 55//6 52//6 57//6
f 22//2 31//2 46//2 47//2
f 40//5 24//5 44//5 46//5 31//5
f 34//4 27//4 64//4 67//4
f 19//3 22//3 47//3 45//3
f 30//4 53//4 57//4 49//4 25//4
f 43//3 29//3 55//3 58//3 59//3 42//3
f 56//6 59//6 58//6 51//6 50//6 48//6 49//6 57//6 52//6 54//6
f 32//2 33//2 66//2 65//2 68//2 36//2
f 27//5 18//5 60//5 64//5
f 71//6 74//6 73//6 72//6
f 41//4 28//4 73//4 74//4
f 28//3 19//3 72//3 73//3
