# Blender v2.76 (sub 0) OBJ File: '180.blend'
# www.blender.org
mtllib 180.mtl
o Cube
v 1.000000 -1.000000 0.000000
v -1.000000 -1.000000 0.000000
v -1.000000 1.000000 0.000000
v 1.000000 1.000000 0.000000
v 0.999999 -1.000000 0.248391
v -1.000001 -0.999999 0.248391
v -1.000000 1.000000 0.248391
v 1.000000 1.000000 0.248391
v 0.806591 -0.806591 0.248391
v -0.806592 -0.806590 0.248391
v 0.806591 0.806591 0.248391
v -0.806591 0.806591 0.248391
v 0.806591 -0.806591 0.186208
v -0.806592 -0.806590 0.186208
v 0.806591 0.806591 0.186208
v -0.806591 0.806591 0.186208
v -0.000000 0.201648 0.186208
v 0.403295 0.201648 0.186208
v -0.201648 0.201648 0.186208
v -0.000000 0.100824 0.186208
v 0.504119 -0.806591 0.186208
v -0.403296 -0.100824 0.186208
v -0.201648 0.100824 0.186208
v 0.201648 -0.100824 0.186208
v -0.100824 -0.100824 0.186208
v -0.806591 -0.050412 0.186208
v -0.000000 0.050412 0.186208
v -0.403296 0.252060 0.186208
v -0.201648 0.050412 0.186208
v 0.252060 0.201648 0.186208
v 0.201648 0.252060 0.186208
v -0.000000 -0.050412 0.186208
v 0.403295 -0.050412 0.186208
v -0.453707 0.201648 0.186208
v -0.201648 -0.050412 0.186208
v -0.453708 -0.100824 0.186208
v -0.252060 -0.100824 0.186208
v 0.453707 -0.100824 0.186208
v 0.050412 -0.100824 0.186208
v 0.050412 0.252060 0.186208
v 0.453707 0.252060 0.186208
v -0.252060 0.252060 0.186208
v -0.453707 0.252060 0.186208
v 0.252059 -0.050412 0.186208
v -0.403296 0.252060 0.310959
v -0.403296 -0.100824 0.310959
v -0.453708 -0.100824 0.310959
v -0.453707 0.252060 0.310959
v 0.403295 0.201648 0.322280
v 0.252060 0.201648 0.322280
v 0.201648 0.252060 0.322280
v 0.403295 -0.050412 0.322280
v 0.403295 -0.100824 0.322280
v 0.302472 0.201648 0.322280
v 0.201648 -0.100824 0.322280
v 0.302472 0.252060 0.322280
v 0.453707 -0.100824 0.322280
v 0.453707 0.252060 0.322280
v 0.252059 -0.050412 0.322280
v 0.050412 0.000000 0.323594
v -0.000000 0.000000 0.323594
v -0.000000 0.050412 0.323594
v -0.000000 0.201648 0.323594
v -0.201648 0.201648 0.323594
v -0.201648 0.050412 0.323594
v -0.000000 0.100824 0.323594
v -0.000000 -0.050412 0.323594
v -0.201648 0.100824 0.323594
v 0.050412 -0.100824 0.323594
v -0.100824 0.201648 0.323594
v -0.201648 -0.050412 0.323594
v -0.252060 -0.100824 0.323594
v 0.050412 0.252060 0.323594
v -0.252060 -0.050412 0.323594
v -0.201648 0.252060 0.323594
v -0.252060 0.252060 0.323594
v -0.100824 0.252060 0.323594
vn 0.000000 0.000000 -1.000000
vn -0.000000 -1.000000 0.000000
vn -1.000000 0.000000 -0.000000
vn 0.000000 1.000000 -0.000000
vn 1.000000 -0.000000 0.000000
vn -0.000000 0.000000 1.000000
usemtl Material
s off
f 1//1 2//1 3//1 4//1
f 1//2 5//2 6//2 2//2
f 2//3 6//3 7//3 3//3
f 3//4 7//4 8//4 4//4
f 5//5 1//5 4//5 8//5
f 11//2 12//2 16//2 15//2
f 9//3 11//3 15//3 13//3
f 12//5 10//5 14//5 26//5 16//5
f 10//4 9//4 13//4 21//4 14//4
f 35//6 32//6 27//6 29//6
f 25//6 37//6 22//6 36//6 34//6 26//6 14//6 21//6 41//6 38//6 24//6
f 40//6 39//6 25//6 24//6 31//6 41//6 21//6 13//6 15//6 16//6 26//6 34//6 43//6 28//6 22//6 37//6 42//6
f 44//6 33//6 18//6 30//6
f 19//6 23//6 20//6 17//6
f 7//6 6//6 10//6 12//6 11//6 8//6
f 6//6 5//6 8//6 11//6 9//6 10//6
usemtl Material.001
f 64//6 70//6 77//6 75//6
f 29//5 65//5 71//5 35//5
f 50//6 54//6 56//6 51//6 55//6 53//6 52//6 59//6
f 18//2 49//2 54//2 50//2 30//2
f 35//4 71//4 67//4 32//4
f 46//6 45//6 48//6 47//6
f 41//4 31//4 51//4 56//4 58//4
f 36//3 47//3 48//3 43//3 34//3
f 20//3 66//3 63//3 17//3
f 37//2 25//2 39//2 69//2 72//2
f 73//6 77//6 70//6 63//6 66//6 68//6 64//6 75//6 76//6 74//6 71//6 65//6 62//6 61//6 60//6
f 20//4 23//4 68//4 66//4
f 36//2 22//2 46//2 47//2
f 27//3 32//3 67//3 61//3 62//3
f 17//2 63//2 70//2 64//2 19//2
f 22//5 28//5 45//5 46//5
f 44//4 59//4 52//4 33//4
f 57//6 58//6 56//6 54//6 49//6 52//6 53//6
f 40//4 42//4 76//4 75//4 77//4 73//4
f 23//5 19//5 64//5 68//5
f 69//6 60//6 61//6 67//6 71//6 74//6 72//6
f 28//4 43//4 48//4 45//4
f 24//3 55//3 51//3 31//3
f 38//5 41//5 58//5 57//5
f 44//5 30//5 50//5 59//5
f 38//2 57//2 53//2 55//2 24//2
f 18//3 33//3 52//3 49//3
f 29//2 27//2 62//2 65//2
f 37//3 72//3 74//3 76//3 42//3
f 39//5 40//5 73//5 60//5 69//5
