# Blender v2.76 (sub 0) OBJ File: 'Ant_Bounding_Box.blend'
# www.blender.org
mtllib Ant_Bounding_Box.mtl
o Cube_Cube.001
v -0.058839 -1.047215 0.701710
v -0.115164 -0.248213 0.920029
v -0.058839 -1.047215 0.617614
v -0.115164 -0.248213 0.640570
v 0.041186 -1.047215 0.701710
v 0.080806 -0.248213 0.920029
v 0.041186 -1.047215 0.617614
v 0.206914 -0.248213 0.640570
v -0.229798 -0.615080 0.968916
v -0.229798 -0.615080 0.534995
v 0.251617 -0.615080 0.534995
v 0.125509 -0.615080 0.968916
v -0.115164 0.041332 1.043252
v -0.115164 0.041332 0.763793
v 0.206914 0.041332 0.763793
v 0.080806 0.041332 1.043252
v -0.153467 0.288725 0.965017
v -0.153467 0.288725 0.685557
v 0.231653 0.288725 0.685557
v 0.105545 0.288725 0.965017
v -0.101708 0.639335 0.965017
v -0.101708 0.639335 0.523881
v 0.133224 0.639335 0.523881
v 0.007116 0.639335 0.965017
v 0.126418 0.464030 0.965017
v -0.195209 0.464030 0.965017
v -0.195209 0.464030 0.588690
v 0.252526 0.464030 0.588690
vn -0.929900 -0.367900 0.000000
vn 0.000000 -0.187800 -0.982200
vn 0.907700 -0.356800 0.221000
vn 0.000000 -0.525900 0.850500
vn 0.000000 -1.000000 0.000000
vn 0.897800 -0.172400 0.405200
vn 0.000000 0.132100 0.991200
vn 0.939100 0.088800 0.332000
vn 0.000000 0.276500 -0.961000
vn -0.954500 0.298200 0.000000
vn 0.910800 0.038900 0.411000
vn -1.000000 0.000000 0.000000
vn 0.000000 -0.391600 0.920100
vn 0.000000 0.391600 -0.920100
vn 0.000000 0.000000 1.000000
vn -0.988200 -0.153000 0.000000
vn 0.000000 0.301500 0.953500
vn 0.000000 -0.301500 -0.953500
vn 0.000000 1.000000 0.000000
vn 0.000000 -0.346800 -0.938000
vn 0.781100 0.576100 0.241000
vn -0.882300 0.470600 0.000000
vn -0.972800 -0.231600 0.000000
vn 0.933300 -0.012000 0.358900
vn 0.000000 -0.483600 -0.875300
usemtl None
s off
f 9//1 10//1 3//1 1//1
f 10//2 11//2 7//2 3//2
f 11//3 12//3 5//3 7//3
f 12//4 9//4 1//4 5//4
f 1//5 3//5 7//5 5//5
f 6//6 8//6 15//6 16//6
f 6//7 2//7 9//7 12//7
f 8//8 6//8 12//8 11//8
f 4//9 8//9 11//9 10//9
f 2//10 4//10 10//10 9//10
f 16//11 15//11 19//11 20//11
f 4//12 2//12 13//12 14//12
f 2//13 6//13 16//13 13//13
f 8//14 4//14 14//14 15//14
f 26//15 25//15 24//15 21//15
f 14//16 13//16 17//16 18//16
f 13//17 16//17 20//17 17//17
f 15//18 14//18 18//18 19//18
f 24//19 23//19 22//19 21//19
f 28//20 27//20 22//20 23//20
f 25//21 28//21 23//21 24//21
f 27//22 26//22 21//22 22//22
f 18//23 17//23 26//23 27//23
f 20//24 19//24 28//24 25//24
f 19//25 18//25 27//25 28//25
f 17//15 20//15 25//15 26//15
