# Blender v2.76 (sub 0) OBJ File: 'Ugly_Cake_Bounding_Box.blend'
# www.blender.org
mtllib Ugly_Cake_Bounding_Box.mtl
o Cylinder
v 0.780730 0.029835 0.014853
v 0.780730 0.029835 0.879026
v 0.765901 -0.120726 0.014853
v 0.765901 -0.120726 0.879026
v 0.721984 -0.265501 0.014853
v 0.721984 -0.265501 0.879026
v 0.650666 -0.398926 0.014853
v 0.650666 -0.398926 0.879026
v 0.554689 -0.515875 0.014853
v 0.554689 -0.515875 0.879026
v 0.437741 -0.611852 0.014853
v 0.437741 -0.611852 0.879026
v 0.304315 -0.683169 0.014853
v 0.304315 -0.683169 0.879026
v 0.159540 -0.727086 0.014853
v 0.159540 -0.727086 0.879026
v 0.008979 -0.741915 0.014853
v 0.008979 -0.741915 0.879026
v -0.141582 -0.727086 0.014853
v -0.141582 -0.727086 0.879026
v -0.286357 -0.683169 0.014853
v -0.286357 -0.683169 0.879026
v -0.419782 -0.611852 0.014853
v -0.419782 -0.611852 0.879026
v -0.536731 -0.515875 0.014853
v -0.536731 -0.515875 0.879026
v -0.632708 -0.398926 0.014853
v -0.632708 -0.398926 0.879026
v -0.704025 -0.265501 0.014853
v -0.704025 -0.265501 0.879026
v -0.747942 -0.120726 0.014853
v -0.747942 -0.120726 0.879026
v -0.762771 0.029835 0.014853
v -0.762771 0.029835 0.879026
v -0.747942 0.180396 0.014853
v -0.747942 0.180396 0.879026
v -0.704025 0.325172 0.014853
v -0.704025 0.325172 0.879026
v -0.632707 0.458597 0.014853
v -0.632707 0.458597 0.879026
v -0.536730 0.575545 0.014853
v -0.536730 0.575545 0.879026
v -0.419782 0.671522 0.014853
v -0.419782 0.671522 0.879026
v -0.286356 0.742840 0.014853
v -0.286356 0.742840 0.879026
v -0.141581 0.786757 0.014853
v -0.141581 0.786757 0.879026
v 0.008980 0.801585 0.014853
v 0.008980 0.801585 0.879026
v 0.159541 0.786756 0.014853
v 0.159541 0.786756 0.879026
v 0.304316 0.742839 0.014853
v 0.304316 0.742839 0.879026
v 0.437742 0.671522 0.014853
v 0.437742 0.671522 0.879026
v 0.554690 0.575544 0.014853
v 0.554690 0.575544 0.879026
v 0.650667 0.458596 0.014853
v 0.650667 0.458596 0.879026
v 0.721984 0.325170 0.014853
v 0.721984 0.325170 0.879026
v 0.765901 0.180395 0.014853
v 0.765901 0.180395 0.879026
vn 0.995200 -0.098000 0.000000
vn 0.956900 -0.290300 0.000000
vn 0.881900 -0.471400 0.000000
vn 0.773000 -0.634400 0.000000
vn 0.634400 -0.773000 0.000000
vn 0.471400 -0.881900 0.000000
vn 0.290300 -0.956900 0.000000
vn 0.098000 -0.995200 0.000000
vn -0.098000 -0.995200 0.000000
vn -0.290300 -0.956900 0.000000
vn -0.471400 -0.881900 0.000000
vn -0.634400 -0.773000 0.000000
vn -0.773000 -0.634400 0.000000
vn -0.881900 -0.471400 0.000000
vn -0.956900 -0.290300 0.000000
vn -0.995200 -0.098000 0.000000
vn -0.995200 0.098000 0.000000
vn -0.956900 0.290300 0.000000
vn -0.881900 0.471400 0.000000
vn -0.773000 0.634400 0.000000
vn -0.634400 0.773000 0.000000
vn -0.471400 0.881900 0.000000
vn -0.290300 0.956900 0.000000
vn -0.098000 0.995200 0.000000
vn 0.098000 0.995200 0.000000
vn 0.290300 0.956900 0.000000
vn 0.471400 0.881900 0.000000
vn 0.634400 0.773000 0.000000
vn 0.773000 0.634400 0.000000
vn 0.881900 0.471400 0.000000
vn 0.000000 0.000000 1.000000
vn 0.995200 0.098000 0.000000
vn 0.956900 0.290300 0.000000
vn 0.000000 0.000000 -1.000000
usemtl None
s off
f 1//1 2//1 4//1 3//1
f 3//2 4//2 6//2 5//2
f 5//3 6//3 8//3 7//3
f 7//4 8//4 10//4 9//4
f 9//5 10//5 12//5 11//5
f 11//6 12//6 14//6 13//6
f 13//7 14//7 16//7 15//7
f 15//8 16//8 18//8 17//8
f 17//9 18//9 20//9 19//9
f 19//10 20//10 22//10 21//10
f 21//11 22//11 24//11 23//11
f 23//12 24//12 26//12 25//12
f 25//13 26//13 28//13 27//13
f 27//14 28//14 30//14 29//14
f 29//15 30//15 32//15 31//15
f 31//16 32//16 34//16 33//16
f 33//17 34//17 36//17 35//17
f 35//18 36//18 38//18 37//18
f 37//19 38//19 40//19 39//19
f 39//20 40//20 42//20 41//20
f 41//21 42//21 44//21 43//21
f 43//22 44//22 46//22 45//22
f 45//23 46//23 48//23 47//23
f 47//24 48//24 50//24 49//24
f 49//25 50//25 52//25 51//25
f 51//26 52//26 54//26 53//26
f 53//27 54//27 56//27 55//27
f 55//28 56//28 58//28 57//28
f 57//29 58//29 60//29 59//29
f 59//30 60//30 62//30 61//30
f 4//31 2//31 64//31 62//31 60//31 58//31 56//31 54//31 52//31 50//31 48//31 46//31 44//31 42//31 40//31 38//31 36//31 34//31 32//31 30//31 28//31 26//31 24//31 22//31 20//31 18//31 16//31 14//31 12//31 10//31 8//31 6//31
f 63//32 64//32 2//32 1//32
f 61//33 62//33 64//33 63//33
f 1//34 3//34 5//34 7//34 9//34 11//34 13//34 15//34 17//34 19//34 21//34 23//34 25//34 27//34 29//34 31//34 33//34 35//34 37//34 39//34 41//34 43//34 45//34 47//34 49//34 51//34 53//34 55//34 57//34 59//34 61//34 63//34
